<svg id="visual" viewBox="0 0 900 600" width="900" height="600" xmlns="http://www.w3.org/2000/svg" xmlns:xlink="http://www.w3.org/1999/xlink" version="1.1"><rect x="0" y="0" width="900" height="600" fill="#001220"></rect><path d="M0 363L21.5 362C43 361 86 359 128.8 369.5C171.7 380 214.3 403 257.2 414.5C300 426 343 426 385.8 416C428.7 406 471.3 386 514.2 384.2C557 382.3 600 398.7 642.8 399.7C685.7 400.7 728.3 386.3 771.2 377C814 367.7 857 363.3 878.5 361.2L900 359L900 601L878.5 601C857 601 814 601 771.2 601C728.3 601 685.7 601 642.8 601C600 601 557 601 514.2 601C471.3 601 428.7 601 385.8 601C343 601 300 601 257.2 601C214.3 601 171.7 601 128.8 601C86 601 43 601 21.5 601L0 601Z" fill="#fa7268"></path><path d="M0 442L21.5 437.8C43 433.7 86 425.3 128.8 418.5C171.7 411.7 214.3 406.3 257.2 407.7C300 409 343 417 385.8 419.8C428.7 422.7 471.3 420.3 514.2 426.2C557 432 600 446 642.8 453C685.7 460 728.3 460 771.2 449.5C814 439 857 418 878.5 407.5L900 397L900 601L878.5 601C857 601 814 601 771.2 601C728.3 601 685.7 601 642.8 601C600 601 557 601 514.2 601C471.3 601 428.7 601 385.8 601C343 601 300 601 257.2 601C214.3 601 171.7 601 128.8 601C86 601 43 601 21.5 601L0 601Z" fill="#ef5f67"></path><path d="M0 500L21.5 490.3C43 480.7 86 461.3 128.8 456.7C171.7 452 214.3 462 257.2 472C300 482 343 492 385.8 494C428.7 496 471.3 490 514.2 489.2C557 488.3 600 492.7 642.8 490.5C685.7 488.3 728.3 479.7 771.2 474.5C814 469.3 857 467.7 878.5 466.8L900 466L900 601L878.5 601C857 601 814 601 771.2 601C728.3 601 685.7 601 642.8 601C600 601 557 601 514.2 601C471.3 601 428.7 601 385.8 601C343 601 300 601 257.2 601C214.3 601 171.7 601 128.8 601C86 601 43 601 21.5 601L0 601Z" fill="#e34c67"></path><path d="M0 518L21.5 514.2C43 510.3 86 502.7 128.8 504.7C171.7 506.7 214.3 518.3 257.2 520.8C300 523.3 343 516.7 385.8 518.2C428.7 519.7 471.3 529.3 514.2 529.2C557 529 600 519 642.8 510.7C685.7 502.3 728.3 495.7 771.2 495.3C814 495 857 501 878.5 504L900 507L900 601L878.5 601C857 601 814 601 771.2 601C728.3 601 685.7 601 642.8 601C600 601 557 601 514.2 601C471.3 601 428.7 601 385.8 601C343 601 300 601 257.2 601C214.3 601 171.7 601 128.8 601C86 601 43 601 21.5 601L0 601Z" fill="#d53867"></path><path d="M0 553L21.5 549.2C43 545.3 86 537.7 128.8 541.2C171.7 544.7 214.3 559.3 257.2 566.7C300 574 343 574 385.8 570.2C428.7 566.3 471.3 558.7 514.2 558.2C557 557.7 600 564.3 642.8 562.2C685.7 560 728.3 549 771.2 549.3C814 549.7 857 561.3 878.5 567.2L900 573L900 601L878.5 601C857 601 814 601 771.2 601C728.3 601 685.7 601 642.8 601C600 601 557 601 514.2 601C471.3 601 428.7 601 385.8 601C343 601 300 601 257.2 601C214.3 601 171.7 601 128.8 601C86 601 43 601 21.5 601L0 601Z" fill="#c62368"></path></svg>