<svg id="visual" viewBox="0 0 960 540" width="960" height="540" xmlns="http://www.w3.org/2000/svg" xmlns:xlink="http://www.w3.org/1999/xlink" version="1.1"><rect x="0" y="0" width="960" height="540" fill="#001220"></rect><path d="M0 326L22.8 325.2C45.7 324.3 91.3 322.7 137 332.2C182.7 341.7 228.3 362.3 274 372.7C319.7 383 365.3 383 411.2 374.2C457 365.3 503 347.7 548.8 346.2C594.7 344.7 640.3 359.3 686 360.2C731.7 361 777.3 348 823 339.5C868.7 331 914.3 327 937.2 325L960 323L960 541L937.2 541C914.3 541 868.7 541 823 541C777.3 541 731.7 541 686 541C640.3 541 594.7 541 548.8 541C503 541 457 541 411.2 541C365.3 541 319.7 541 274 541C228.3 541 182.7 541 137 541C91.3 541 45.7 541 22.8 541L0 541Z" fill="#fa7268"></path><path d="M0 398L22.8 394.2C45.7 390.3 91.3 382.7 137 376.5C182.7 370.3 228.3 365.7 274 366.8C319.7 368 365.3 375 411.2 377.5C457 380 503 378 548.8 383.3C594.7 388.7 640.3 401.3 686 407.5C731.7 413.7 777.3 413.3 823 403.8C868.7 394.3 914.3 375.7 937.2 366.3L960 357L960 541L937.2 541C914.3 541 868.7 541 823 541C777.3 541 731.7 541 686 541C640.3 541 594.7 541 548.8 541C503 541 457 541 411.2 541C365.3 541 319.7 541 274 541C228.3 541 182.7 541 137 541C91.3 541 45.7 541 22.8 541L0 541Z" fill="#ef5f67"></path><path d="M0 449L22.8 440.5C45.7 432 91.3 415 137 410.8C182.7 406.7 228.3 415.3 274 424.2C319.7 433 365.3 442 411.2 443.8C457 445.7 503 440.3 548.8 439.7C594.7 439 640.3 443 686 441.2C731.7 439.3 777.3 431.7 823 427C868.7 422.3 914.3 420.7 937.2 419.8L960 419L960 541L937.2 541C914.3 541 868.7 541 823 541C777.3 541 731.7 541 686 541C640.3 541 594.7 541 548.8 541C503 541 457 541 411.2 541C365.3 541 319.7 541 274 541C228.3 541 182.7 541 137 541C91.3 541 45.7 541 22.8 541L0 541Z" fill="#e34c67"></path><path d="M0 466L22.8 462.5C45.7 459 91.3 452 137 453.8C182.7 455.7 228.3 466.3 274 468.7C319.7 471 365.3 465 411.2 466.3C457 467.7 503 476.3 548.8 476.2C594.7 476 640.3 467 686 459.5C731.7 452 777.3 446 823 445.7C868.7 445.3 914.3 450.7 937.2 453.3L960 456L960 541L937.2 541C914.3 541 868.7 541 823 541C777.3 541 731.7 541 686 541C640.3 541 594.7 541 548.8 541C503 541 457 541 411.2 541C365.3 541 319.7 541 274 541C228.3 541 182.7 541 137 541C91.3 541 45.7 541 22.8 541L0 541Z" fill="#d53867"></path><path d="M0 497L22.8 493.7C45.7 490.3 91.3 483.7 137 486.8C182.7 490 228.3 503 274 509.5C319.7 516 365.3 516 411.2 512.7C457 509.3 503 502.7 548.8 502.3C594.7 502 640.3 508 686 506C731.7 504 777.3 494 823 494.3C868.7 494.7 914.3 505.3 937.2 510.7L960 516L960 541L937.2 541C914.3 541 868.7 541 823 541C777.3 541 731.7 541 686 541C640.3 541 594.7 541 548.8 541C503 541 457 541 411.2 541C365.3 541 319.7 541 274 541C228.3 541 182.7 541 137 541C91.3 541 45.7 541 22.8 541L0 541Z" fill="#c62368"></path></svg>